<?xml version="1.0" encoding="iso-8859-1"?>
<!-- Generator: Adobe Illustrator 19.0.0, SVG Export Plug-In . SVG Version: 6.00 Build 0)  -->
<svg version="1.1" id="Capa_1" xmlns="http://www.w3.org/2000/svg" xmlns:xlink="http://www.w3.org/1999/xlink" x="0px" y="0px"
	 viewBox="0 0 512 512" style="enable-background:new 0 0 512 512;" xml:space="preserve">
<g>
	<g>
		<path d="M359.5,124.407c-43.841-59.266-86.963-106.385-88.776-108.362L256,0l-14.724,16.046
			c-1.815,1.976-44.935,49.096-88.776,108.362c-60.616,81.943-91.351,144.989-91.351,187.385v5.356
			C61.149,424.59,148.559,512,256,512c107.442,0,194.851-87.41,194.851-194.852v-5.356
			C450.851,269.396,420.116,206.35,359.5,124.407z M410.882,317.149c0,85.402-69.48,154.882-154.882,154.882
			s-154.882-69.48-154.882-154.882v-5.356c0-32.661,29.588-90.672,83.315-163.345c27.464-37.15,55.206-70.007,71.566-88.788
			c16.36,18.782,44.102,51.639,71.566,88.788c53.727,72.674,83.315,130.684,83.315,163.345V317.149z"/>
	</g>
</g>
<g>
</g>
<g>
</g>
<g>
</g>
<g>
</g>
<g>
</g>
<g>
</g>
<g>
</g>
<g>
</g>
<g>
</g>
<g>
</g>
<g>
</g>
<g>
</g>
<g>
</g>
<g>
</g>
<g>
</g>
</svg>
